<svg xmlns="http://www.w3.org/2000/svg" data-name="Layer 1" viewBox="0 0 11 16.26">
                                                   <title>icon_location</title>
                                                   <path d="M8.5.5A5.51,5.51,0,0,0,3,6c0,4.37,4.91,10.09,5.12,10.33l.38.43.38-.43C9.09,16.09,14,10.37,14,6A5.51,5.51,0,0,0,8.5.5Zm0,14.72C7.35,13.79,4,9.34,4,6a4.5,4.5,0,0,1,9,0C13,9.33,9.65,13.79,8.5,15.22Zm0-12.08a3,3,0,1,0,3,3A3,3,0,0,0,8.5,3.14Zm0,5a2,2,0,1,1,2-2A2,2,0,0,1,8.5,8.14Z" transform="translate(-3 -0.5)"></path>
                                                </svg>